<?xml version="1.0" encoding="UTF-8" standalone="no"?>
<!-- Created with Inkscape (http://www.inkscape.org/) -->

<svg
   width="116.41031"
   height="116.41031"
   viewBox="0 0 58.205154 58.205159"
   version="1.1"
   id="svg5"
   inkscape:version="1.2.2 (b0a84865, 2022-12-01)"
   sodipodi:docname="logo.svg"
   inkscape:export-filename="logo_prototype.png"
   inkscape:export-xdpi="158.33649"
   inkscape:export-ydpi="158.33649"
   xmlns:inkscape="http://www.inkscape.org/namespaces/inkscape"
   xmlns:sodipodi="http://sodipodi.sourceforge.net/DTD/sodipodi-0.dtd"
   xmlns="http://www.w3.org/2000/svg"
   xmlns:svg="http://www.w3.org/2000/svg">
  <sodipodi:namedview
     id="namedview7"
     pagecolor="#ffffff"
     bordercolor="#000000"
     borderopacity="0.25"
     inkscape:showpageshadow="2"
     inkscape:pageopacity="0.0"
     inkscape:pagecheckerboard="0"
     inkscape:deskcolor="#d1d1d1"
     inkscape:document-units="px"
     showgrid="false"
     showguides="true"
     inkscape:zoom="2.9125469"
     inkscape:cx="58.196488"
     inkscape:cy="72.445186"
     inkscape:window-width="1158"
     inkscape:window-height="710"
     inkscape:window-x="190"
     inkscape:window-y="25"
     inkscape:window-maximized="0"
     inkscape:current-layer="layer1">
    <inkscape:grid
       type="xygrid"
       id="grid2501"
       empspacing="2"
       originx="-1.005966e-07"
       originy="0" />
  </sodipodi:namedview>
  <defs
     id="defs2">
    <rect
       x="-85.967655"
       y="-212.39068"
       width="141.94966"
       height="71.256612"
       id="rect12131" />
  </defs>
  <g
     inkscape:label="Layer 1"
     inkscape:groupmode="layer"
     id="layer1">
    <rect
       style="mix-blend-mode:normal;fill:#eebf5e;fill-opacity:1;fill-rule:nonzero;stroke:none;stroke-width:0.499999;stroke-opacity:1"
       id="rect12030"
       width="60.000004"
       height="60.000004"
       x="-35.375217"
       y="-128.81833" />
    <rect
       style="fill:#000000;fill-opacity:1;stroke:none;stroke-width:0.5"
       id="rect7993"
       width="72"
       height="72"
       x="-89.718033"
       y="-54.292858" />
    <rect
       style="fill:#eebf5e;fill-opacity:1;stroke:none;stroke-width:0.5"
       id="rect7993-0"
       width="41.711411"
       height="72"
       x="-89.718033"
       y="-54.292858" />
    <rect
       style="fill:#000000;fill-opacity:1;stroke-width:0.283342;stroke:none"
       id="rect20496-5"
       width="24.138748"
       height="58.205154"
       x="34.066406"
       y="0"
       inkscape:export-filename="ElsewhereEdge/src/webapp/web/icons/Icon-192.png"
       inkscape:export-xdpi="158.33649"
       inkscape:export-ydpi="158.33649" />
    <path
       id="rect29195"
       style="fill:#f5ba44;fill-opacity:1;stroke-width:0.5;stroke:none"
       d="M 0 0 L 0 58.20508 L 34.066407 58.20508 L 34.066407 48.20508 L 38.970705 47.501955 L 38.970705 28.869142 L 34.066407 29.572267 L 34.066407 0 L 0 0 z " />
    <path
       id="rect20496"
       style="fill:#000000;fill-opacity:1;stroke-width:0.356331"
       d="M 2.654297,20.625001 2.7628945e-8,23.279298 v 1.978515 L 2.654297,27.937501 6.3281252,24.263673 Z" />
    <path
       style="font-weight:bold;font-size:36px;font-family:Kabala;-inkscape-font-specification:'Kabala Bold';stroke-width:0.5"
       d="M 4.904297,28.869351 V 47.502163 L 0,48.205288 V 29.572476 Z"
       id="path20251" />
    <path
       d="m 24.240234,38.554898 q 0,3.990234 -2.830078,6.820312 -2.830078,2.830078 -6.837891,2.830078 -4.007812,0 -6.83789,-2.830078 -2.830078,-2.830078 -2.830078,-6.820312 0,-4.007813 2.830078,-6.837891 2.830078,-2.847656 6.83789,-2.847656 4.007813,0 6.837891,2.847656 2.830078,2.830078 2.830078,6.837891 z m -9.667969,-4.957032 q -2.021484,0 -3.480468,1.458985 -1.441407,1.441406 -1.441407,3.498047 0,2.05664 1.441407,3.515625 1.458984,1.441406 3.480468,1.441406 2.021485,0 3.462891,-1.441406 1.458984,-1.458985 1.458984,-3.515625 0,-2.056641 -1.458984,-3.498047 -1.441406,-1.458985 -3.462891,-1.458985 z"
       id="path20253"
       style="font-weight:bold;font-size:36px;font-family:Kabala;-inkscape-font-specification:'Kabala Bold';stroke-width:0.5" />
    <path
       d="m 29.056641,23.683804 v 5.888672 h 5.009765 v 3.515625 h -5.009765 v 8.542969 c 0,1.136719 0.251953,1.96289 0.755859,2.478515 0.515625,0.503907 1.115365,0.702677 1.792969,0.75586 l 2.460938,0.193151 V 48.20508 L 30.375,48.205288 c -1.734375,9.8e-5 -3.19336,-0.603516 -4.376953,-1.810547 -1.171875,-1.21875 -1.757813,-3.123047 -1.757813,-5.71289 v -15.66211 z"
       id="path20255"
       style="font-weight:bold;font-size:36px;font-family:Kabala;-inkscape-font-specification:'Kabala Bold';stroke-width:0.5"
       sodipodi:nodetypes="cccccscsccscccc" />
    <path
       style="font-weight:bold;font-size:36px;font-family:Kabala;-inkscape-font-specification:'Kabala Bold';fill:#f5ba44;fill-opacity:1;stroke-width:0.5"
       d="m 36.720703,27.93771 -3.638672,-3.673828 3.638672,-3.638672 3.673828,3.638672 z"
       id="path20368" />
    <path
       d="m 53.224485,47.030973 q -3.5327,1.892772 -7.36385,0.734755 -3.831145,-1.158018 -5.715617,-4.675224 -1.892773,-3.5327 -0.734755,-7.363846 1.14972,-3.846641 4.682422,-5.739413 3.53269,-1.892772 7.82813,-0.724268 l -1.20888,4.815623 q -2.60427,-0.878075 -4.38611,0.07661 -1.78184,0.954686 -2.37884,2.929752 -0.589797,1.951266 0.38149,3.764099 0.9713,1.812833 2.93086,2.418126 1.96677,0.581494 3.74861,-0.373192 1.78184,-0.954686 2.67598,-3.268438 l 4.52123,1.366603 q -1.44798,4.14604 -4.98067,6.038813 z"
       id="path20259"
       style="font-weight:bold;font-size:36px;font-family:Kabala;-inkscape-font-specification:'Kabala Bold';fill:#f5ba44;fill-opacity:1;stroke-width:0.5" />
    <text
       xml:space="preserve"
       style="font-style:normal;font-variant:normal;font-weight:bold;font-stretch:normal;font-size:36px;font-family:Kabala;-inkscape-font-specification:'Kabala Bold';display:none;fill:#000000;fill-opacity:1;stroke:none;stroke-width:0.5"
       x="21.058594"
       y="47.502163"
       id="text33863"><tspan
         sodipodi:role="line"
         id="tspan33861"
         style="stroke-width:0.5"
         x="21.058594"
         y="47.502163">t</tspan></text>
    <text
       xml:space="preserve"
       style="font-style:normal;font-variant:normal;font-weight:bold;font-stretch:normal;font-size:36px;font-family:Kabala;-inkscape-font-specification:'Kabala Bold';fill:#000000;fill-opacity:1;stroke-width:0.5"
       x="-41.749645"
       y="-18.878101"
       id="text4108"><tspan
         sodipodi:role="line"
         id="tspan4106"
         style="stroke-width:0.5;fill:#000000"
         x="-41.749645"
         y="-18.878101" /></text>
    <path
       style="font-weight:bold;font-size:36px;font-family:Kabala;-inkscape-font-specification:'Kabala Bold';stroke-width:0.5"
       d="m -79.468798,-17.770395 -3.638672,-3.673828 3.638672,-3.638672 3.673828,3.638672 z"
       id="path6413" />
    <path
       style="font-weight:bold;font-size:36px;font-family:Kabala;-inkscape-font-specification:'Kabala Bold';stroke-width:0.5"
       d="M -77.218798,-16.838755 V 1.794058 l -4.904297,0.703125 V -16.13563 Z"
       id="path6395" />
    <path
       d="m -57.88286,-7.153208 q 0,3.990235 -2.830078,6.820313 -2.830079,2.830078 -6.837891,2.830078 -4.007813,0 -6.837891,-2.830078 -2.830078,-2.830078 -2.830078,-6.820313 0,-4.007812 2.830078,-6.83789 2.830078,-2.847657 6.837891,-2.847657 4.007812,0 6.837891,2.847657 2.830078,2.830078 2.830078,6.83789 z m -9.667969,-4.957031 q -2.021484,0 -3.480469,1.458984 -1.441406,1.441407 -1.441406,3.498047 0,2.056641 1.441406,3.515625 1.458985,1.441407 3.480469,1.441407 2.021484,0 3.462891,-1.441407 1.458984,-1.458984 1.458984,-3.515625 0,-2.05664 -1.458984,-3.498047 -1.441407,-1.458984 -3.462891,-1.458984 z"
       id="path6397"
       style="font-weight:bold;font-size:36px;font-family:Kabala;-inkscape-font-specification:'Kabala Bold';stroke-width:0.5" />
    <path
       d="m -53.066454,-22.024301 v 5.888671 h 5.02188 l 0.03491,3.515625 h -5.056793 v 8.542969 c 0,1.136719 0.251953,1.962891 0.755859,2.478516 0.515625,0.503906 1.113282,0.755859 1.792969,0.755859 0.679687,0 1.550072,-0.228516 2.51101,-0.685547 v 3.146485 c -1.359375,0.585937 -2.639916,0.878906 -3.741479,0.878906 -1.734375,0 -3.193359,-0.603516 -4.376953,-1.810547 -1.171875,-1.21875 -1.757812,-3.123047 -1.757812,-5.712891 v -15.662109 z"
       id="path6399"
       style="font-weight:bold;font-size:36px;font-family:Kabala;-inkscape-font-specification:'Kabala Bold';stroke-width:0.5"
       sodipodi:nodetypes="cccccscsccscccc" />
    <path
       style="font-weight:bold;font-size:36px;font-family:Kabala;-inkscape-font-specification:'Kabala Bold';fill:#eebf5e;fill-opacity:1;stroke:none;stroke-width:0.5"
       d="m -45.402391,-17.770395 -3.638672,-3.673828 3.638672,-3.638672 3.673828,3.638672 z"
       id="path6417" />
    <path
       style="font-weight:bold;font-size:36px;font-family:Kabala;-inkscape-font-specification:'Kabala Bold';fill:#eebf5e;fill-opacity:1;stroke:none;stroke-width:0.5"
       d="M -43.152391,-16.838755 V 1.794058 l -4.904297,0.703125 V -16.13563 Z"
       id="path6401"
       sodipodi:nodetypes="ccccc" />
    <path
       d="m -30.068737,1.457573 q -3.753201,1.405719 -7.396122,-0.251932 -3.642922,-1.657652 -5.042476,-5.394391 -1.405719,-3.7532 0.251932,-7.396122 1.651486,-3.659383 5.404687,-5.065103 3.753201,-1.405719 7.854885,0.324126 l -1.839091,4.611866 q -2.46423,-1.216898 -4.357292,-0.507873 -1.893062,0.709025 -2.747628,2.587053 -0.844269,1.855401 -0.122913,3.781385 0.721356,1.925985 2.582922,2.786716 1.871863,0.838105 3.764925,0.129079 1.893062,-0.709025 3.087212,-2.883176 l 4.2991,1.956235 q -1.98694,3.916417 -5.740141,5.322137 z"
       id="path6403"
       style="font-weight:bold;font-size:36px;font-family:Kabala;-inkscape-font-specification:'Kabala Bold';fill:#eebf5e;fill-opacity:1;stroke:none;stroke-width:0.5" />
    <path
       style="font-weight:bold;font-size:32px;font-family:Kabala;-inkscape-font-specification:'Kabala Bold';fill:#000000;fill-opacity:1;stroke:none;stroke-width:0.5"
       d="m -30.03418,-100.19839 -3.234375,-3.26562 3.234375,-3.23438 3.265625,3.23438 z"
       id="path11968" />
    <path
       style="font-weight:bold;font-size:32px;font-family:Kabala;-inkscape-font-specification:'Kabala Bold';fill:#000000;fill-opacity:1;stroke:none;stroke-width:0.5"
       d="m -28.03418,-99.37026 v 16.562498 l -4.359375,0.625 V -98.74526 Z"
       id="path11950" />
    <path
       d="m -10.84668,-90.760887 q 0,3.546875 -2.515625,6.0625 -2.515625,2.515625 -6.078125,2.515625 -3.5625,0 -6.078125,-2.515625 -2.515625,-2.515625 -2.515625,-6.0625 0,-3.5625 2.515625,-6.078123 2.515625,-2.53125 6.078125,-2.53125 3.5625,0 6.078125,2.53125 2.515625,2.515623 2.515625,6.078123 z m -8.59375,-4.40625 q -1.796875,0 -3.09375,1.296875 -1.28125,1.28125 -1.28125,3.109375 0,1.828125 1.28125,3.125 1.296875,1.28125 3.09375,1.28125 1.796875,0 3.078125,-1.28125 1.296875,-1.296875 1.296875,-3.125 0,-1.828125 -1.296875,-3.109375 -1.28125,-1.296875 -3.078125,-1.296875 z"
       id="path11952"
       style="font-weight:bold;font-size:32px;font-family:Kabala;-inkscape-font-specification:'Kabala Bold';fill:#000000;fill-opacity:1;stroke:none;stroke-width:0.5" />
    <path
       d="m -6.5654297,-103.97964 v 5.23438 h 4.5564296 v 3.124998 h -4.5564296 v 7.59375 c 0,1.010417 0.223959,1.744792 0.671875,2.203125 0.458334,0.447917 0.9914403,0.624551 1.59375,0.671875 l 2.1875,0.171875 v 2.796875 h -3.28125 c -1.541667,0 -2.838542,-0.536458 -3.890625,-1.609375 -1.0416673,-1.083333 -1.5625003,-2.776042 -1.5625003,-5.078125 v -13.921878 z"
       id="path11954"
       style="font-weight:bold;font-size:32px;font-family:Kabala;-inkscape-font-specification:'Kabala Bold';fill:#000000;fill-opacity:1;stroke:none;stroke-width:0.5"
       sodipodi:nodetypes="cccccscsccscccc" />
    <path
       style="font-weight:bold;font-size:32px;font-family:Kabala;-inkscape-font-specification:'Kabala Bold';fill:#000000;fill-opacity:1;stroke:none;stroke-width:0.5"
       d="m 0.24707026,-100.19839 -3.23437496,-3.26562 3.23437496,-3.23438 3.26562504,3.23438 z"
       id="path11972" />
    <path
       style="font-weight:bold;font-size:32px;font-family:Kabala;-inkscape-font-specification:'Kabala Bold';fill:#000000;fill-opacity:1;stroke:none;stroke-width:0.5"
       d="m 2.2470703,-99.37026 v 16.562498 l -4.359375,0.625 V -98.74526 Z"
       id="path11956" />
    <path
       d="m 14.256685,-83.307208 q -3.272881,1.407003 -6.577535,0.08943 -3.304655,-1.317572 -4.7054866,-4.576098 -1.407003,-3.272881 -0.089431,-6.577535 1.3114006,-3.319009 4.5842816,-4.726009 3.272881,-1.40701 6.987919,-0.0447 l -1.437648,4.172639 q -2.239459,-0.976136 -3.890254,-0.266464 -1.650795,0.709673 -2.33004,2.413315 -0.671062,1.683116 0.05095,3.362621 0.722014,1.679504 2.411302,2.36492 1.69747,0.664891 3.348266,-0.04478 1.650795,-0.709672 2.619014,-2.690613 l 3.899903,1.554899 q -1.598362,3.561427 -4.871243,4.96843 z"
       id="path11958"
       style="font-weight:bold;font-size:32px;font-family:Kabala;-inkscape-font-specification:'Kabala Bold';fill:#000000;fill-opacity:1;stroke:none;stroke-width:0.5" />
    <path
       d="m -26.408848,-143.72711 q -3.5625,0 -6.078125,-2.51563 -2.515625,-2.51562 -2.515625,-6.0625 0,-3.5625 2.515625,-6.07812 2.515625,-2.53125 6.078125,-2.53125 3.5625,0 6.4375,2.71875 l -2.96875,3.26562 q -1.671875,-1.78125 -3.46875,-1.78125 -1.796875,0 -3.09375,1.29688 -1.28125,1.28125 -1.28125,3.10937 0,1.82813 1.28125,3.125 1.296875,1.28125 3.09375,1.28125 1.796875,0 3.46875,-1.4375 l 2.96875,2.96875 q -2.875,2.64063 -6.4375,2.64063 z"
       style="font-weight:bold;font-size:32px;font-family:Kabala;-inkscape-font-specification:'Kabala Bold';fill:#000000;stroke-width:0.5"
       id="path12135" />
    <path
       d="m -15.674473,-160.91461 v 16.5625 l -4.359375,0.625 v -16.5625 z m -2,-0.82813 -3.234375,-3.26562 3.234375,-3.23438 3.265625,3.23438 z"
       style="font-weight:bold;font-size:32px;font-family:Kabala;-inkscape-font-specification:'Kabala Bold';fill:#000000;stroke-width:0.5"
       id="path12137" />
    <path
       d="m 1.4036522,-152.30524 q 0,3.54688 -2.5156251,6.0625 -2.515625,2.51563 -6.0781249,2.51563 -3.5625002,0 -6.0781252,-2.51563 -2.515625,-2.51562 -2.515625,-6.0625 0,-3.5625 2.515625,-6.07812 2.515625,-2.53125 6.0781252,-2.53125 3.5624999,0 6.0781249,2.53125 2.5156251,2.51562 2.5156251,6.07812 z m -8.59375,-4.40625 q -1.796875,0 -3.0937502,1.29688 -1.28125,1.28125 -1.28125,3.10937 0,1.82813 1.28125,3.125 1.2968752,1.28125 3.0937502,1.28125 1.796875,0 3.078125,-1.28125 1.2968749,-1.29687 1.2968749,-3.125 0,-1.82812 -1.2968749,-3.10937 -1.28125,-1.29688 -3.078125,-1.29688 z"
       style="font-weight:bold;font-size:32px;font-family:Kabala;-inkscape-font-specification:'Kabala Bold';fill:#000000;stroke-width:0.5"
       id="path12139" />
    <path
       d="m 5.575527,-165.52399 v 5.23438 h 4.40625 v 3.125 h -4.40625 v 7.59375 c 0,1.01041 0.2239583,1.74479 0.671875,2.20312 0.4583333,0.44792 0.989583,0.67188 1.59375,0.67188 0.604167,0 1.333333,-0.20313 2.1875,-0.60938 v 2.79688 c -1.208333,0.52083 -2.302083,0.78125 -3.28125,0.78125 -1.5416667,0 -2.8385416,-0.53646 -3.8906248,-1.60938 -1.0416667,-1.08333 -1.5625,-2.77604 -1.5625,-5.07812 v -13.92188 z"
       style="font-weight:bold;font-size:32px;font-family:Kabala;-inkscape-font-specification:'Kabala Bold';fill:#000000;stroke-width:0.5"
       id="path12141"
       sodipodi:nodetypes="cccccscsccscccc" />
    <path
       d="m 23.450527,-161.07086 v 16.71875 l -4.234375,0.625 v -2.04688 q -1.390625,2.04688 -3.34375,2.04688 -2.640625,0 -4.453125,-1.54688 -1.796875,-1.5625 -1.796875,-4.51562 v -10.5 l 4.421875,-0.78125 v 11.28125 q 0,1.26562 0.5625,1.90625 0.578125,0.625 1.734375,0.625 1.3125,0 2.046875,-0.625 0.734375,-0.64063 0.734375,-1.90625 v -10.5 z"
       style="font-weight:bold;font-size:32px;font-family:Kabala;-inkscape-font-specification:'Kabala Bold';fill:#000000;stroke-width:0.5"
       id="path12143" />
    <path
       d="m 25.434902,-152.24274 h -0.0625 q -1.921875,-1.20312 -1.921875,-3.375 0,-2.34375 1.921875,-3.73437 1.921875,-1.40625 4.140625,-1.40625 2.375,0 4.609375,1.70312 l -2.03125,2.46875 q -1.15625,-0.95312 -2.578125,-0.95312 -1.75,0 -1.75,1.92187 0,1.79688 2.21875,2.09375 2.015625,0.48438 3.296875,1.28125 h 0.04687 q 1.9375,1.20313 1.9375,3.375 0,2.34375 -1.921875,3.75 -1.921875,1.39063 -4.140625,1.39063 -2.21875,0 -3.578125,-0.54688 -1.359375,-0.53125 -2.484375,-1.92187 l 2.484375,-2.67188 q 1.671875,1.90625 3.578125,1.92188 1.75,0 1.75,-1.92188 0,-1.48437 -2.21875,-2.09375 -2.015625,-0.48437 -3.296875,-1.28125 z"
       style="font-weight:bold;font-size:32px;font-family:Kabala;-inkscape-font-specification:'Kabala Bold';fill:#000000;stroke-width:0.5"
       id="path12145" />
    <text
       xml:space="preserve"
       transform="scale(0.50000002)"
       id="text12129"
       style="font-style:normal;font-variant:normal;font-weight:bold;font-stretch:normal;font-size:64px;font-family:Kabala;-inkscape-font-specification:'Kabala Bold';white-space:pre;shape-inside:url(#rect12131);display:inline;fill:#000000;fill-opacity:1;stroke:none;stroke-opacity:1" />
    <text
       xml:space="preserve"
       style="font-style:normal;font-variant:normal;font-weight:bold;font-stretch:normal;font-size:32px;font-family:Kabala;-inkscape-font-specification:'Kabala Bold';fill:#000000;fill-opacity:1;stroke:none;stroke-width:0.5;stroke-opacity:1"
       x="-27.175697"
       y="-226.11859"
       id="text12882"><tspan
         sodipodi:role="line"
         id="tspan12880"
         style="stroke-width:0.5"
         x="-27.175697"
         y="-226.11859">ciotric</tspan></text>
    <text
       xml:space="preserve"
       style="font-style:normal;font-variant:normal;font-weight:bold;font-stretch:normal;font-size:32px;font-family:Kabala;-inkscape-font-specification:'Kabala Bold';fill:#000000;fill-opacity:1;stroke:none;stroke-width:0.5;stroke-opacity:1"
       x="-26.877598"
       y="-197.61273"
       id="text12886"><tspan
         sodipodi:role="line"
         id="tspan12884"
         style="stroke-width:0.5"
         x="-26.877598"
         y="-197.61273">ciotrus</tspan></text>
    <text
       xml:space="preserve"
       style="font-style:normal;font-variant:normal;font-weight:bold;font-stretch:normal;font-size:32px;font-family:Kabala;-inkscape-font-specification:'Kabala Bold';fill:#000000;fill-opacity:1;stroke:none;stroke-width:0.5;stroke-opacity:1"
       x="-27.486975"
       y="-254.62447"
       id="text12890"><tspan
         sodipodi:role="line"
         id="tspan12888"
         style="stroke-width:0.5"
         x="-27.486975"
         y="-254.62447">ciotic</tspan><tspan
         sodipodi:role="line"
         style="stroke-width:0.5"
         x="-27.486975"
         y="-214.62447"
         id="tspan12892" /></text>
    <rect
       style="fill:#000000;fill-opacity:1;fill-rule:nonzero;stroke:none;stroke-width:0.5;stroke-opacity:1"
       id="rect23622"
       width="20.855705"
       height="51.87653"
       x="-68.862328"
       y="-123.50301" />
  </g>
</svg>
