<?xml version="1.0" encoding="UTF-8" standalone="no"?>
<!-- Created with Inkscape (http://www.inkscape.org/) -->

<svg
   width="240"
   height="144"
   viewBox="0 0 240 144"
   version="1.1"
   id="svg5"
   xml:space="preserve"
   inkscape:version="1.2.2 (b0a84865, 2022-12-01)"
   sodipodi:docname="drawing_iotic_2.svg"
   xmlns:inkscape="http://www.inkscape.org/namespaces/inkscape"
   xmlns:sodipodi="http://sodipodi.sourceforge.net/DTD/sodipodi-0.dtd"
   xmlns="http://www.w3.org/2000/svg"
   xmlns:svg="http://www.w3.org/2000/svg"><defs
   id="defs1327">
     
    
    </defs>
   <sodipodi:namedview
   id="namedview7"
   pagecolor="#ffffff"
   bordercolor="#000000"
   borderopacity="0.25"
   inkscape:showpageshadow="2"
   inkscape:pageopacity="0.0"
   inkscape:pagecheckerboard="0"
   inkscape:deskcolor="#d1d1d1"
   inkscape:document-units="px"
   showgrid="true"
   inkscape:zoom="1.4142136"
   inkscape:cx="171.47339"
   inkscape:cy="101.11627"
   inkscape:window-width="1436"
   inkscape:window-height="774"
   inkscape:window-x="1"
   inkscape:window-y="25"
   inkscape:window-maximized="0"
   inkscape:current-layer="svg5"><inkscape:grid
   type="xygrid"
   id="grid2517"
   originx="0"
   originy="0" />
    </sodipodi:namedview>

  <defs
   id="defs1650">
      <clipPath
   id="solarClipPath">
        <path
   id="path6134-9"
   style="vector-effect:non-scaling-stroke;fill:#800000;fill-opacity:1;stroke:#000000;stroke-width:2.34738;stroke-linejoin:bevel;-inkscape-stroke:hairline;paint-order:markers fill stroke"
   d="m 192,132 c -33.94771,0 -66.50501,-8.42855 -90.50967,-23.43146 C 77.485675,93.56563 64.000001,69.217318 64,48 h 8 m 0,0 c 0,19.095588 12.642822,41.409071 35.14719,54.91169 C 129.65155,116.41431 160.17402,124 192,124 v 8"
   inkscape:label="solarClipPath" />
      </clipPath>

      <clipPath
   id="gridClipPath">
        <rect
   style="vector-effect:non-scaling-stroke;fill:#800000;stroke-linejoin:bevel;-inkscape-stroke:hairline;paint-order:markers fill stroke"
   id="rect5299"
   width="152"
   height="8"
   x="40"
   y="124"
   inkscape:label="gridClipPath" />
      </clipPath>

      <clipPath
   id="carClipPath">
        <path
   id="path12171-8"
   style="vector-effect:non-scaling-stroke;fill:#800000;fill-opacity:1;stroke:#000000;stroke-width:2.77746;stroke-linejoin:bevel;-inkscape-stroke:hairline;paint-order:markers fill stroke"
   d="M 216,102 A 42,72 0 0 0 174,30 v -8 m 0,0 a 50,80 0 0 1 50,80 h -8"
   inkscape:label="carClipPath" />
      </clipPath>
  </defs>

     <path
   d="m 220,110 -20,18 h 6 v 16 h 28 v -16 h 6 l -20,-18 m -1,30 v -8 h -5 l 7,-14 v 8 h 5 z"
   id="home"
   style="stroke-width:2;stroke:none;fill:#cfc5b6;fill-opacity:1"
   inkscape:label="home" />
     <path
   d="M 8.36,110.9 4.8,109.1 7.32,104 h 16.94 l 2.54,5.1 -3.56,1.78 L 21.8,108 h -12 l -1.44,2.9 m 20.68,5.1 h -9.06 l -1.58,-6 h -5.2 l -1.58,6 H 2.56 L 0,121.1 3.58,122.88 5.04,120 h 21.52 l 1.44,2.9 3.58,-1.78 -2.54,-5.12 m -1.7,28 H 23.2 L 22.72,142.2 15.8,131.8 8.86,142.2 8.4,144 H 4.26 l 5.78,-22 h 4.14 l -0.72,2.7 2.34,3.5 2.32,-3.5 -0.7,-2.7 h 4.14 l 5.78,22 M 14.6,130 12.8,127.3 10.44,136.26 14.6,130 m 6.56,6.24 L 18.8,127.28 17,130 Z"
   id="grid"
   style="stroke-width:2;stroke:none;fill:#cfc5b6;fill-opacity:1"
   inkscape:label="grid" />
     <path
   d="M 50.660003,27.999994 H 66 V 21.999996 H 52.000003 l -1.34,5.999998 m 19.339997,0 h 15.340005 l -1.34,-5.999998 H 70 v 5.999998 m 16.220004,4 H 70 v 7.999998 h 18.000004 l -1.78,-7.999998 m -38.22,7.999998 H 66 V 31.999994 H 49.780004 l -1.78,7.999998 M 66,11.999998 h 4 v 5.999998 h -4 v -5.999998 m 9.520006,-1.58 2.84,-2.84 4.239999,4.24 -2.819999,2.839999 -4.26,-4.239999 m -22.100003,1.4 4.239999,-4.24 2.82,2.84 -4.24,4.239999 -2.819999,-2.839999 M 50.000004,0 h 5.999998 V 3.999999 H 50.000004 V 0 m 30.000002,0 h 5.999998 V 3.999999 H 80.000006 V 0 M 68,9.999998 C 73.520007,9.999998 78.000006,5.519999 78.000006,0 H 58.000002 c 0,5.519999 4.479999,9.999998 9.999998,9.999998 z"
   id="path7317"
   style="stroke-width:2;stroke:none;fill:#cfc5b6;fill-opacity:1"
   inkscape:label="solar" />
     <path
   d="m 134,24 3,-9 h 22 l 3,9 m -3,10 a 3,3 0 0 1 -3,-3 3,3 0 0 1 3,-3 3,3 0 0 1 3,3 3,3 0 0 1 -3,3 m -22,0 a 3,3 0 0 1 -3,-3 3,3 0 0 1 3,-3 3,3 0 0 1 3,3 3,3 0 0 1 -3,3 m 24.84,-20 c -0.4,-1.16 -1.52,-2 -2.84,-2 h -22 c -1.32,0 -2.44,0.84 -2.84,2 L 130,26 v 16 a 2,2 0 0 0 2,2 h 2 a 2,2 0 0 0 2,-2 v -2 h 24 v 2 a 2,2 0 0 0 2,2 h 2 a 2,2 0 0 0 2,-2 V 26 Z"
   id="path14802"
   style="stroke-width:2;stroke:none;fill:#cfc5b6;fill-opacity:1"
   inkscape:label="car" />
     
  <g
   id="red"
   clip-path="url(#gridClipPath)">
     <path
   id="use11391"
   style="display:inline;vector-effect:non-scaling-stroke;fill:#e7835b;fill-opacity:1;stroke:none;stroke-linejoin:bevel;-inkscape-stroke:hairline;paint-order:markers fill stroke"
   inkscape:label="red"
   inkscape:transform-center-x="96"
   d="M -37.704782,114.01825 -39.010044,104.1038 152,84 Z m 5.541119,24.50464 -2.588191,-9.65926 L 152,84 Z m 8.69221,23.57173 -3.826834,-9.2388 L 152,84 Z m 11.694575,22.23551 -5,-8.66026 L 152,84 Z M 2.719966,204.84896 -3.367648,196.91543 152,84 Z M 19.771032,223.30004 12.699964,216.22897 152,84 Z m 19.31354,16.06761 -7.933533,-6.08762 L 152,84 Z m 21.245558,13.40923 -8.660257,-5 L 152,84 Z m 22.81405,10.52141 -9.2388,-3.82684 L 152,84 Z m 23.99219,7.45356 -9.65926,-2.58819 L 152,84 Z m 24.75983,4.25819 -9.91445,-1.30526 L 152,84 Z M 157,276 h -10 l 5,-192 z m 25.01825,-2.29522 -9.91445,1.30526 L 152,84 Z m 24.50464,-5.54112 -9.65926,2.58819 L 152,84 Z m 23.57173,-8.69221 -9.2388,3.82684 L 152,84 Z m 22.23551,-11.69457 -8.66026,5 L 152,84 Z m 20.51883,-14.49685 -7.93353,6.08762 L 152,84 Z m 18.45108,-17.05106 -7.07107,7.07107 L 152,84 Z m 16.06761,-19.31354 -6.08762,7.93353 L 152,84 Z m 13.40923,-21.24556 -5,8.66026 L 152,84 Z m 10.52141,-22.81405 -3.82684,9.2388 L 152,84 Z m 7.45356,-23.99219 -2.58819,9.65926 L 152,84 Z m 4.25819,-24.75983 -1.30526,9.91445 L 152,84 Z M 344,79 V 89 L 152,84 Z m -2.29522,-25.018253 1.30526,9.914448 L 152,84 Z m -5.54112,-24.504633 2.58819,9.659258 L 152,84 Z M 327.47145,5.905383 331.29829,15.144179 152,84 Z m -11.69457,-22.23551 5,8.660254 L 152,84 Z m -14.49685,-20.518834 6.08762,7.933533 L 152,84 Z m -17.05106,-18.451075 7.07107,7.071068 L 152,84 Z m -19.31354,-16.067612 7.93353,6.087614 L 152,84 Z m -21.24556,-13.40923 8.66026,5 L 152,84 Z m -22.81405,-10.521409 9.2388,3.826834 L 152,84 Z m -23.99219,-7.453563 9.65926,2.58819 L 152,84 Z m -24.75983,-4.25819 9.91445,1.30526 L 152,84 Z M 147,-108 h 10 l -5,192 z m -25.01825,2.29522 9.91445,-1.30526 L 152,84 Z m -24.50464,5.54112 9.65926,-2.58819 L 152,84 Z m -23.57173,8.692207 9.2388,-3.826834 L 152,84 Z m -22.235507,11.694575 8.660257,-5 L 152,84 Z M 31.151039,-65.280034 39.084572,-71.367648 152,84 Z M 12.699964,-48.228968 19.771032,-55.300036 152,84 Z M -3.367648,-28.915428 2.719966,-36.848961 152,84 Z m -13.40923,21.245555 5,-8.660254 L 152,84 Z M -27.298287,15.144179 -23.471453,5.905383 152,84 Z m -7.453567,23.992193 2.588191,-9.659258 L 152,84 Z m -4.258191,24.759827 1.305262,-9.914448 L 152,84 Z M -40,89 V 79 l 192,5 z m 0,0 V 79 l 192,5 z" />
  </g>

    <g
   id="yellow"
   clip-path="url(#carClipPath)">
     <path
   id="use11057_2"
   style="display:inline;vector-effect:non-scaling-stroke;fill:#eebf5e;fill-opacity:1;stroke:none;stroke-width:0.894431;stroke-linejoin:bevel;-inkscape-stroke:hairline;paint-order:markers fill stroke"
   inkscape:transform-center-x="200"
   d="M -39.401623,101.12947 152,84 -37.313204,116.99259 Z m 3.873312,24.83638 L 152,84 -31.387206,141.42066 Z m 7.081973,24.11833 L 152,84 -22.323403,164.86626 Z M -18.276878,173.0718 152,84 -10.276878,186.9282 Z M -5.193933,194.53537 152,84 4.54625,207.22902 Z M 10.578644,214.10765 152,84 21.892352,225.42136 Z M 28.770979,231.45375 152,84 41.464632,241.19393 Z M 49.071797,246.27688 152,84 62.9282,254.27688 Z M 71.13374,258.3234 152,84 85.91582,264.44634 Z m 23.4456,9.06381 L 152,84 110.03415,271.52831 Z M 119.00741,273.3132 152,84 134.87053,275.40162 Z M 144,276 152,84 160,276 Z M 169.12947,275.40162 152,84 184.99259,273.3132 Z M 193.96585,271.52831 152,84 209.42066,267.38721 Z M 218.08418,264.44634 152,84 232.86626,258.3234 Z M 241.0718,254.27688 152,84 254.9282,246.27688 Z M 262.53537,241.19393 152,84 275.22902,231.45375 Z M 282.10765,225.42136 152,84 293.42136,214.10765 Z M 299.45375,207.22902 152,84 309.19393,194.53537 Z M 314.27688,186.9282 152,84 322.27688,173.0718 Z M 326.3234,164.86626 152,84 332.44634,150.08418 Z m 9.06381,-23.4456 L 152,84 339.52831,125.96585 Z M 341.3132,116.99259 152,84 343.40162,101.12947 Z M 344,92 152,84 344,76 Z M 343.40162,66.87053 152,84 341.3132,51.007412 Z M 339.52831,42.03415 152,84 335.38721,26.579337 Z M 332.44634,17.915817 152,84 326.3234,3.133745 Z M 322.27688,-5.071797 152,84 314.27688,-18.928203 Z M 309.19393,-26.535368 152,84 299.45375,-39.229021 Z M 293.42136,-46.107648 152,84 282.10765,-57.421356 Z M 275.22902,-63.45375 152,84 262.53537,-73.193933 Z M 254.9282,-78.276878 152,84 241.0718,-86.276878 Z M 232.86626,-90.323403 152,84 218.08418,-96.446338 Z M 209.42066,-99.387206 152,84 193.96585,-103.52831 Z M 184.99259,-105.3132 152,84 169.12947,-107.40162 Z M 160,-108 152,84 144,-108 Z m -25.12947,0.59838 L 152,84 119.00741,-105.3132 Z m -24.83638,3.87331 L 152,84 94.57934,-99.387206 Z M 85.91582,-96.446338 152,84 71.13374,-90.323403 Z M 62.9282,-86.276878 152,84 49.071797,-78.276878 Z M 41.464632,-73.193933 152,84 28.770979,-63.45375 Z M 21.892352,-57.421356 152,84 10.578644,-46.107648 Z M 4.54625,-39.229021 152,84 -5.193933,-26.535368 Z M -10.276878,-18.928203 152,84 -18.276878,-5.071797 Z M -22.323403,3.133745 152,84 -28.446338,17.915817 Z M -31.387206,26.579337 152,84 -35.528311,42.03415 Z M -37.313204,51.007416 152,84 -39.401623,66.87053 Z M -40,76 152,84 -40,92 Z m 0,0 192,8 -192,8 z"
   inkscape:label="yellow" />
  </g>
  
  <g
   id="green"
   clip-path="url(#solarClipPath)">
     <path
   id="use11057"
   style="display:inline;vector-effect:non-scaling-stroke;fill:#63ae8d;fill-opacity:1;stroke:none;stroke-width:0.894431;stroke-linejoin:bevel;-inkscape-stroke:hairline;paint-order:markers fill stroke"
   inkscape:transform-center-x="200"
   d="M -39.401623,101.12947 152,84 -37.313204,116.99259 Z m 3.873312,24.83638 L 152,84 -31.387206,141.42066 Z m 7.081973,24.11833 L 152,84 -22.323403,164.86626 Z M -18.276878,173.0718 152,84 -10.276878,186.9282 Z M -5.193933,194.53537 152,84 4.54625,207.22902 Z M 10.578644,214.10765 152,84 21.892352,225.42136 Z M 28.770979,231.45375 152,84 41.464632,241.19393 Z M 49.071797,246.27688 152,84 62.9282,254.27688 Z M 71.13374,258.3234 152,84 85.91582,264.44634 Z m 23.4456,9.06381 L 152,84 110.03415,271.52831 Z M 119.00741,273.3132 152,84 134.87053,275.40162 Z M 144,276 152,84 160,276 Z M 169.12947,275.40162 152,84 184.99259,273.3132 Z M 193.96585,271.52831 152,84 209.42066,267.38721 Z M 218.08418,264.44634 152,84 232.86626,258.3234 Z M 241.0718,254.27688 152,84 254.9282,246.27688 Z M 262.53537,241.19393 152,84 275.22902,231.45375 Z M 282.10765,225.42136 152,84 293.42136,214.10765 Z M 299.45375,207.22902 152,84 309.19393,194.53537 Z M 314.27688,186.9282 152,84 322.27688,173.0718 Z M 326.3234,164.86626 152,84 332.44634,150.08418 Z m 9.06381,-23.4456 L 152,84 339.52831,125.96585 Z M 341.3132,116.99259 152,84 343.40162,101.12947 Z M 344,92 152,84 344,76 Z M 343.40162,66.87053 152,84 341.3132,51.007412 Z M 339.52831,42.03415 152,84 335.38721,26.579337 Z M 332.44634,17.915817 152,84 326.3234,3.133745 Z M 322.27688,-5.071797 152,84 314.27688,-18.928203 Z M 309.19393,-26.535368 152,84 299.45375,-39.229021 Z M 293.42136,-46.107648 152,84 282.10765,-57.421356 Z M 275.22902,-63.45375 152,84 262.53537,-73.193933 Z M 254.9282,-78.276878 152,84 241.0718,-86.276878 Z M 232.86626,-90.323403 152,84 218.08418,-96.446338 Z M 209.42066,-99.387206 152,84 193.96585,-103.52831 Z M 184.99259,-105.3132 152,84 169.12947,-107.40162 Z M 160,-108 152,84 144,-108 Z m -25.12947,0.59838 L 152,84 119.00741,-105.3132 Z m -24.83638,3.87331 L 152,84 94.57934,-99.387206 Z M 85.91582,-96.446338 152,84 71.13374,-90.323403 Z M 62.9282,-86.276878 152,84 49.071797,-78.276878 Z M 41.464632,-73.193933 152,84 28.770979,-63.45375 Z M 21.892352,-57.421356 152,84 10.578644,-46.107648 Z M 4.54625,-39.229021 152,84 -5.193933,-26.535368 Z M -10.276878,-18.928203 152,84 -18.276878,-5.071797 Z M -22.323403,3.133745 152,84 -28.446338,17.915817 Z M -31.387206,26.579337 152,84 -35.528311,42.03415 Z M -37.313204,51.007416 152,84 -39.401623,66.87053 Z M -40,76 152,84 -40,92 Z m 0,0 192,8 -192,8 z"
   inkscape:label="green" />
  </g>
</svg>
